# xmcd
#
# Track frame offsets:
#	182
#	15152
#	34325
#
# Disc length: 625 seconds
#
# Revision: 1
# Processed by: cddbd v1.5.1PL0 Copyright (c) Steve Scherf et al.
# Submitted via: dBpowerAMP V4.0
#
DISCID=16026f03
DTITLE=Dig - I'll stay high (Single)
DYEAR=1994
DGENRE=Fusion
TTITLE0=I'll stay high
TTITLE1=King o my world
TTITLE2=On the inside
EXTD=
EXTT0=
EXTT1=
EXTT2=
PLAYORDER=
